<?xml version="1.0" encoding="UTF-8" standalone="no"?>
<svg
   xmlns:dc="http://purl.org/dc/elements/1.1/"
   xmlns:cc="http://creativecommons.org/ns#"
   xmlns:rdf="http://www.w3.org/1999/02/22-rdf-syntax-ns#"
   xmlns:svg="http://www.w3.org/2000/svg"
   xmlns="http://www.w3.org/2000/svg"
   xmlns:sodipodi="http://sodipodi.sourceforge.net/DTD/sodipodi-0.dtd"
   xmlns:inkscape="http://www.inkscape.org/namespaces/inkscape"
   version="1.1"
   x="0px"
   y="0px"
   viewBox="0 0 128 128"
   enable-background="new 0 0 100 100"
   xml:space="preserve"
   id="svg2"
   inkscape:version="0.91 r13725"
   sodipodi:docname="Hrag Chanchanian.svg"
   width="128"
   height="128"
   inkscape:export-filename="/home/levan/coding/apps/KeepTab/Hrag Chanchanian.png"
   inkscape:export-xdpi="90"
   inkscape:export-ydpi="90"><metadata
     id="metadata18"><rdf:RDF><cc:Work
         rdf:about=""><dc:format>image/svg+xml</dc:format><dc:type
           rdf:resource="http://purl.org/dc/dcmitype/StillImage" /><dc:title></dc:title></cc:Work></rdf:RDF></metadata><defs
     id="defs16" /><sodipodi:namedview
     pagecolor="#ffffff"
     bordercolor="#666666"
     borderopacity="1"
     objecttolerance="10"
     gridtolerance="10"
     guidetolerance="10"
     inkscape:pageopacity="0"
     inkscape:pageshadow="2"
     inkscape:window-width="1360"
     inkscape:window-height="744"
     id="namedview14"
     showgrid="false"
     fit-margin-top="0"
     fit-margin-left="0"
     fit-margin-right="0"
     fit-margin-bottom="0"
     inkscape:zoom="1.89"
     inkscape:cx="125.65508"
     inkscape:cy="31.643774"
     inkscape:window-x="0"
     inkscape:window-y="123"
     inkscape:window-maximized="1"
     inkscape:current-layer="g4" /><g
     id="g4"
     transform="matrix(1.3016993,0,0,1.3016993,-0.97627447,-1.3739422)"><rect
       style="opacity:1;fill:#840054;fill-opacity:1;fill-rule:nonzero;stroke:none;stroke-width:3.84113288;stroke-miterlimit:4;stroke-dasharray:none;stroke-dashoffset:0;stroke-opacity:1"
       id="rect4146"
       width="98.333"
       height="98.333"
       x="0.75000095"
       y="1.0554999"
       ry="0" /><rect
       style="opacity:1;fill:#bcbcbc;fill-opacity:1;fill-rule:nonzero;stroke:none;stroke-width:5;stroke-miterlimit:4;stroke-dasharray:none;stroke-dashoffset:0;stroke-opacity:1"
       id="rect4520-3-6"
       width="98.333"
       height="6.0970368"
       x="-99.388496"
       y="0.75"
       transform="matrix(0,-1,1,0,0,0)" /><rect
       style="opacity:1;fill:#bcbcbc;fill-opacity:1;fill-rule:nonzero;stroke:none;stroke-width:5;stroke-miterlimit:4;stroke-dasharray:none;stroke-dashoffset:0;stroke-opacity:1"
       id="rect4520-3-6-7"
       width="98.333"
       height="5.2840986"
       x="-99.388496"
       y="93.798904"
       transform="matrix(0,-1,1,0,0,0)" /><g
       id="g4567"
       transform="matrix(0.88410618,0,0,0.88203938,6.1839568,5.9242182)"><path
         style="fill:#b39ddb;fill-opacity:1"
         inkscape:connector-curvature="0"
         id="path6"
         d="m 74.116,50.686 c 0,0 0.564,1.539 2.626,1.539 0,0 12.771,0 14.871,0 2.1,0 1.191,-1.693 1.191,-1.693 L 86.98,37.776 c -0.39,-0.938 -1.495,-0.763 -1.495,-0.763 -3.417,0 -14.935,0 -16.078,0 -1.374,0 -0.763,1.305 -0.763,1.305 0.524,1.132 5.472,12.368 5.472,12.368 z" /><path
         style="fill:#7e57c2;fill-opacity:1"
         inkscape:connector-curvature="0"
         id="path8"
         d="m 72.717001,56.148 c -0.745,-0.102 -1.626,-0.403 -1.964,-1.249 -0.954,-2.305 -7.556,-17.08 -7.556,-17.08 0,0 -0.867,-2.125 -3.627,-2.125 l -40.795,0 c -2.847,0 -3.628,2.125 -3.628,2.125 0,0 -6.507,14.937 -7.556,17.08 -0.338,0.846 -1.218,1.147 -1.963,1.249 l -4.87799995,0 0,8.602 98.33299995,0 0,-8.602 -26.366,0 z" /></g><rect
       style="opacity:1;fill:#bcbcbc;fill-opacity:1;fill-rule:nonzero;stroke:none;stroke-width:5;stroke-miterlimit:4;stroke-dasharray:none;stroke-dashoffset:0;stroke-opacity:1"
       id="rect4520"
       width="98.333"
       height="6.0970368"
       x="0.75000095"
       y="1.055499" /><rect
       style="opacity:1;fill:#bcbcbc;fill-opacity:1;fill-rule:nonzero;stroke:none;stroke-width:5;stroke-miterlimit:4;stroke-dasharray:none;stroke-dashoffset:0;stroke-opacity:1"
       id="rect4520-3"
       width="98.333"
       height="5.6905675"
       x="0.75000095"
       y="93.697929" /></g></svg>