<?xml version="1.0" encoding="UTF-8" standalone="no"?>
<!DOCTYPE svg PUBLIC "-//W3C//DTD SVG 1.1//EN" "http://www.w3.org/Graphics/SVG/1.1/DTD/svg11.dtd">
<svg version="1.1" xmlns="http://www.w3.org/2000/svg" xmlns:xlink="http://www.w3.org/1999/xlink" preserveAspectRatio="xMidYMid meet" viewBox="0 0 128 128" width="128" height="128"><defs><path d="M0 0L128 0L128 128L0 128L0 0Z" id="c2zeKCxDKS"></path><path d="M50.67 53.6L50.88 53.63L51.09 53.66L51.28 53.71L51.46 53.76L51.64 53.82L51.81 53.89L51.97 53.96L52.12 54.04L52.26 54.12L52.4 54.21L52.53 54.3L52.65 54.39L52.76 54.49L52.87 54.58L52.97 54.68L53.06 54.78L53.14 54.88L53.22 54.97L53.29 55.06L53.36 55.15L53.42 55.24L53.47 55.32L53.52 55.4L53.56 55.48L53.6 55.54L53.63 55.6L53.66 55.65L53.68 55.7L53.69 55.74L53.71 55.76L53.71 55.78L53.71 55.78L64 83.71L0.16 83.71L0.14 83.16L0.13 82.64L0.11 82.12L0.1 81.63L0.08 81.14L0.07 80.67L0.06 80.22L0.05 79.78L0.04 79.36L0.03 78.95L0.02 78.55L0.01 78.17L0.01 77.8L0.01 77.45L0 77.11L0 76.79L0 76.48L0 76.19L0 75.91L0.01 75.65L0.01 75.4L0.01 75.17L0.02 74.95L0.03 74.74L0.04 74.55L0.05 74.37L0.06 74.21L0.07 74.07L0.08 73.93L0.1 73.82L0.11 73.71L0.13 73.62L0.14 73.55L0.16 73.49L0.27 73.26L0.39 72.97L0.55 72.61L0.72 72.2L0.91 71.74L1.13 71.23L1.35 70.68L1.6 70.1L1.86 69.47L2.13 68.82L2.4 68.14L2.69 67.45L2.98 66.73L3.28 66.01L3.58 65.28L3.88 64.54L4.18 63.8L4.48 63.08L4.77 62.36L5.06 61.65L5.34 60.97L5.6 60.31L5.86 59.67L6.11 59.07L6.34 58.51L6.55 57.98L6.74 57.5L6.92 57.07L7.07 56.7L7.2 56.38L7.3 56.13L7.38 55.94L7.42 55.82L7.44 55.78L7.44 55.78L7.45 55.76L7.46 55.74L7.47 55.7L7.49 55.65L7.52 55.6L7.55 55.54L7.58 55.48L7.62 55.4L7.67 55.32L7.72 55.24L7.78 55.15L7.84 55.06L7.91 54.97L7.99 54.88L8.07 54.78L8.16 54.68L8.26 54.58L8.36 54.49L8.47 54.39L8.59 54.3L8.72 54.21L8.86 54.12L9 54.04L9.15 53.96L9.31 53.89L9.48 53.82L9.66 53.76L9.85 53.71L10.05 53.66L10.25 53.63L10.47 53.6L10.7 53.59L10.93 53.58L50.22 53.58L50.45 53.59L50.67 53.6Z" id="e7FxpnddQ"></path><path d="M127.86 54.12L127.87 54.65L127.89 55.16L127.9 55.66L127.92 56.14L127.93 56.61L127.94 57.07L127.95 57.51L127.96 57.93L127.97 58.34L127.98 58.74L127.99 59.12L127.99 59.48L128 59.84L128 60.17L128 60.5L128 60.8L128 61.1L128 61.37L128 61.64L127.99 61.89L127.99 62.12L127.98 62.34L127.97 62.55L127.96 62.74L127.95 62.91L127.94 63.08L127.93 63.22L127.92 63.35L127.9 63.47L127.89 63.57L127.87 63.66L127.86 63.74L127.84 63.8L127.73 64.03L127.61 64.32L127.46 64.67L127.28 65.08L127.09 65.55L126.87 66.05L126.65 66.6L126.4 67.19L126.14 67.82L125.88 68.47L125.6 69.14L125.31 69.84L125.02 70.56L124.72 71.28L124.42 72.01L124.12 72.75L123.82 73.48L123.52 74.21L123.23 74.93L122.94 75.64L122.66 76.32L122.4 76.98L122.14 77.62L121.89 78.22L121.66 78.78L121.45 79.31L121.26 79.79L121.08 80.22L120.93 80.59L120.8 80.91L120.7 81.16L120.62 81.35L120.58 81.47L120.56 81.51L120.56 81.51L120.55 81.53L120.54 81.56L120.53 81.59L120.51 81.64L120.48 81.69L120.45 81.75L120.42 81.82L120.38 81.89L120.33 81.97L120.28 82.05L120.23 82.14L120.16 82.23L120.09 82.32L120.02 82.42L119.93 82.51L119.84 82.61L119.74 82.71L119.64 82.8L119.53 82.9L119.41 82.99L119.28 83.08L119.14 83.17L119 83.25L118.85 83.33L118.69 83.4L118.52 83.47L118.34 83.53L118.15 83.58L117.95 83.63L117.75 83.66L117.53 83.69L117.3 83.7L117.07 83.71L77.78 83.71L77.55 83.7L77.33 83.69L77.12 83.66L76.91 83.63L76.72 83.58L76.54 83.53L76.36 83.47L76.19 83.4L76.03 83.33L75.88 83.25L75.74 83.17L75.6 83.08L75.47 82.99L75.35 82.9L75.24 82.8L75.13 82.71L75.04 82.61L74.94 82.51L74.86 82.42L74.78 82.32L74.71 82.23L74.64 82.14L74.58 82.05L74.53 81.97L74.48 81.89L74.44 81.82L74.4 81.75L74.37 81.69L74.34 81.64L74.32 81.59L74.31 81.56L74.29 81.53L74.29 81.51L74.29 81.51L64 53.58L127.84 53.58L127.86 54.12Z" id="a1jMFEtJMA"></path></defs><g><g><g><use xlink:href="#c2zeKCxDKS" opacity="1" fill="#ffdcc9" fill-opacity="1"></use></g><g><use xlink:href="#e7FxpnddQ" opacity="1" fill="#000000" fill-opacity="1"></use><g><use xlink:href="#e7FxpnddQ" opacity="1" fill-opacity="0" stroke="#000000" stroke-width="1" stroke-opacity="0"></use></g></g><g><use xlink:href="#a1jMFEtJMA" opacity="1" fill="#000000" fill-opacity="1"></use><g><use xlink:href="#a1jMFEtJMA" opacity="1" fill-opacity="0" stroke="#000000" stroke-width="1" stroke-opacity="0"></use></g></g></g></g></svg>